<svg width="360" height="355" viewBox="0 0 360 355" fill="none" xmlns="http://www.w3.org/2000/svg">
<g clip-path="url(#clip0_2093_597)">
<path d="M544.419 234.864C546.501 235.645 547.022 236.165 546.762 239.286C547.022 239.286 547.022 239.546 547.283 239.546C547.283 241.367 546.762 242.927 546.762 244.748C546.762 245.528 546.762 245.528 546.501 246.048C547.022 246.308 547.283 246.308 547.283 246.308C549.105 245.528 557.435 252.81 557.435 253.07C557.435 253.07 557.435 253.07 557.175 253.33C556.654 253.33 556.134 253.33 555.613 253.33C555.613 253.33 555.613 253.33 555.613 253.59C555.613 253.59 556.654 254.371 558.216 254.371C558.737 254.371 559.518 254.631 560.299 255.411C560.82 255.931 560.819 256.711 561.08 257.492C561.34 258.272 562.121 258.272 562.381 258.792C562.902 259.572 562.902 260.613 563.423 261.133L569.15 266.074C569.15 266.074 575.918 270.496 580.084 272.316L583.988 273.617C584.769 273.877 585.811 274.397 586.592 274.657C587.893 274.137 587.373 273.357 587.373 273.357C587.112 273.097 586.852 272.837 586.852 272.577L582.166 268.155C580.865 267.375 580.865 267.375 579.823 265.294C579.303 264.254 580.084 262.953 579.303 262.173C578.261 261.133 573.575 257.492 571.493 256.711C571.233 256.711 570.712 256.451 570.451 256.451C569.671 256.191 569.41 255.151 568.629 254.891C567.848 254.631 567.067 254.111 566.286 253.851L561.861 252.29C561.34 252.03 560.559 251.51 560.559 251.51C558.216 249.949 558.477 248.389 558.477 248.389C557.956 247.348 555.613 246.048 555.613 246.048C550.667 239.286 550.667 239.286 552.749 235.125C552.489 234.604 552.229 233.824 552.229 233.044C552.489 232.524 553.01 232.004 553.53 231.483L583.468 248.389C583.207 248.909 582.687 249.429 582.166 249.949C582.166 250.209 582.427 250.73 582.427 250.99C582.687 250.99 582.947 250.99 583.208 250.99C583.468 250.99 583.728 250.99 583.728 250.99C583.468 250.99 583.207 250.99 582.947 250.99C582.687 250.99 582.426 250.99 582.166 250.99C582.426 251.51 582.427 251.77 583.208 251.77C583.728 251.77 584.509 251.51 584.769 251.51C586.592 250.99 588.674 250.99 590.497 250.73C590.236 250.209 589.976 249.429 589.716 248.909C590.236 248.389 590.757 247.869 591.017 247.609C595.183 248.909 595.703 249.169 602.472 247.348C602.472 246.308 602.992 244.748 603.513 243.707C597.005 234.604 597.005 234.604 594.402 233.044C589.455 229.923 576.179 221.86 576.96 217.959C577.48 217.959 578.261 217.699 578.782 217.699C578.782 217.179 579.042 216.399 579.303 215.878C583.728 215.358 586.071 215.358 586.071 215.358C586.852 215.098 588.154 215.098 588.935 214.838L589.716 215.618C592.319 216.919 593.1 217.179 595.443 217.179C595.964 218.219 596.484 219.259 597.005 220.04C597.786 220.56 598.567 221.08 599.348 221.6C599.348 221.08 599.087 220.3 599.087 219.78C599.608 219.52 600.389 218.999 600.649 218.739C605.596 220.04 610.802 218.999 616.009 220.3C616.529 220.04 617.05 219.52 617.571 218.999C621.996 220.56 621.996 220.56 644.124 216.659C643.863 216.138 643.343 215.358 643.083 214.838C644.645 212.237 645.165 211.977 647.508 211.717C647.768 211.197 648.029 210.417 648.289 209.896C648.81 209.896 649.591 209.896 650.111 210.157C650.632 210.157 650.892 210.157 650.892 210.157C650.892 209.896 650.892 209.896 650.892 209.636C650.892 209.376 651.153 209.376 651.153 209.116V208.856C651.153 208.596 651.153 208.336 650.892 208.076C650.372 207.296 650.372 207.296 650.372 207.296C650.372 207.296 650.372 207.296 650.632 207.036C650.892 206.775 651.153 206.255 651.673 205.215C650.892 204.955 650.111 205.475 649.33 204.695C648.81 204.175 648.549 203.915 648.029 203.394C647.768 203.134 647.508 203.134 647.248 203.134C646.727 203.134 645.946 202.874 645.425 202.614C645.946 202.354 646.467 202.094 646.987 201.834C647.768 201.834 648.549 202.094 649.33 201.834C649.851 201.834 650.111 201.574 649.851 201.574C649.851 201.574 649.591 201.314 649.33 201.314C648.81 201.054 648.549 201.054 648.289 200.533C646.987 199.233 647.248 199.233 647.508 199.233C647.508 199.233 647.768 199.233 648.289 199.493C648.549 199.493 648.81 199.493 648.81 199.493C649.07 199.493 648.549 198.973 648.549 198.973C648.549 198.973 645.426 196.892 644.905 196.632C641.521 194.031 630.847 185.709 630.847 185.709C637.876 182.848 637.876 182.848 639.438 182.848C641.26 182.848 641.781 182.848 642.562 183.108C643.864 183.368 644.124 183.628 644.644 183.368C645.686 183.108 645.946 183.108 645.425 182.588C645.425 182.588 644.124 181.547 639.698 180.767C639.438 180.767 639.438 180.767 638.657 180.247C632.409 176.086 623.818 177.386 618.091 171.664C622.256 170.104 634.232 169.323 634.492 169.323C637.876 169.844 638.657 170.624 639.178 171.404C638.657 172.705 637.095 172.444 636.314 173.485C636.574 174.005 636.574 174.005 637.876 174.525C637.616 175.045 637.616 175.045 636.574 175.305C636.054 175.305 635.533 175.826 635.533 175.826C635.533 175.826 636.314 176.086 636.835 176.086C641.26 176.346 645.425 175.045 649.851 176.086C657.661 177.906 657.4 179.727 657.14 180.767C656.099 181.287 656.099 181.287 655.838 181.547C656.619 186.489 664.69 181.547 665.21 186.489C665.731 187.269 667.032 187.529 667.553 188.83C667.032 189.09 667.033 189.09 664.69 188.57C665.471 189.61 667.033 190.91 667.033 190.91C668.855 192.991 668.855 192.991 668.595 194.291C668.074 194.552 668.074 194.552 666.252 195.332C666.252 196.112 666.252 197.933 669.896 196.372L670.417 197.673L672.76 197.412C677.185 197.933 681.871 197.412 686.297 198.713C683.954 197.152 682.652 195.332 682.652 195.332C683.954 191.691 670.938 184.148 670.938 183.888C670.938 183.888 668.595 182.588 668.334 181.547C668.855 181.287 668.855 181.287 669.375 179.987C671.458 179.727 673.541 181.027 675.623 180.507C675.884 180.507 675.884 180.507 676.144 180.247C676.665 179.207 677.185 177.906 677.706 176.866C677.706 176.606 677.966 176.346 680.83 176.086C682.652 175.826 684.474 173.485 686.297 175.305C686.817 175.826 686.817 175.826 687.598 175.565C693.586 178.947 693.586 178.947 697.751 178.686C702.958 178.166 707.383 175.045 712.329 173.485C712.85 171.664 716.755 169.844 717.276 169.584C719.618 168.543 719.618 168.543 719.618 164.902C719.618 164.382 719.618 164.382 719.358 163.862C718.837 162.821 718.317 161.521 718.057 160.741C719.358 157.88 720.92 154.499 716.495 152.158C713.11 149.817 705.3 146.436 705.3 146.436H703.739C703.478 146.696 702.958 147.476 702.697 147.736C701.656 147.736 700.354 147.476 699.313 147.216C698.792 146.436 698.011 145.136 697.23 144.615C697.491 144.615 698.011 144.615 698.272 144.615C697.751 144.615 697.23 144.355 696.71 144.095C696.449 144.615 695.929 145.136 695.669 145.396C695.148 145.136 694.627 144.876 694.106 144.876C693.846 144.095 693.846 144.095 685.776 139.674C692.805 136.813 701.396 140.194 707.383 134.212C729.771 134.992 729.771 134.992 735.498 138.634C737.321 139.674 737.321 139.674 739.664 139.674L740.705 140.194C746.953 143.575 754.502 143.055 760.75 146.436C759.709 146.176 758.407 145.656 757.366 145.656C758.928 147.476 758.928 147.476 775.328 150.857C774.027 149.037 771.423 149.037 769.861 147.216C778.452 142.275 786.522 148.257 794.853 148.517C794.592 149.037 794.592 149.557 794.332 150.077C795.113 150.857 796.415 150.857 797.196 151.898C800.059 153.978 803.183 151.378 806.047 152.678C806.567 152.938 807.088 153.198 807.609 153.458C807.609 152.938 807.348 152.158 807.348 151.898C809.431 150.597 810.993 150.077 815.419 152.678C814.898 152.678 814.117 152.678 813.596 152.938C813.076 153.718 812.555 155.019 812.555 156.059C808.91 158.92 791.729 160.22 787.303 159.44C787.303 159.96 787.303 160.741 787.303 161.261C786.262 161.781 785.221 162.301 784.179 162.561C783.138 166.202 795.373 181.287 797.977 184.148C800.84 183.108 801.101 183.108 803.183 183.368C805.526 179.467 805.526 179.467 809.952 180.767C809.431 179.987 808.91 178.686 808.65 177.646C811.514 177.126 814.377 178.426 817.501 178.426C816.72 177.646 815.679 176.606 814.898 176.086C815.158 175.045 815.939 174.005 816.46 173.225C817.241 174.005 818.282 174.525 819.323 175.045C819.323 174.525 819.323 173.745 819.584 173.225C818.542 172.705 817.501 171.924 816.72 171.144C816.981 170.624 817.241 170.104 817.241 169.584C815.158 167.243 812.034 167.243 809.952 165.162C811.253 164.122 811.253 164.122 826.092 163.081C829.736 169.063 835.984 165.682 840.67 167.243C842.492 168.543 844.835 170.364 846.658 171.664C846.918 171.144 847.439 170.624 847.699 170.364C874.773 172.705 874.773 172.705 882.062 176.086C882.583 175.826 883.103 175.565 883.624 175.305C881.802 171.664 865.922 162.821 865.922 162.561C872.17 160.741 876.595 166.463 882.322 166.983C882.583 166.463 882.843 165.942 883.103 165.422C882.583 165.162 882.062 164.642 881.541 164.382C881.802 163.862 882.062 163.342 882.062 162.821C883.103 163.081 884.405 163.602 885.446 164.122C886.488 166.983 886.488 166.983 912.26 180.247C912.52 179.987 913.041 179.987 913.301 179.727C915.644 182.068 915.644 182.068 918.768 181.547C918.247 181.287 917.727 180.767 917.466 180.507C917.727 180.507 917.987 180.247 917.987 180.247L918.247 180.507C917.727 179.727 916.685 178.686 915.904 177.906C921.632 180.507 921.632 180.507 926.057 180.247C919.549 173.745 906.533 168.803 903.409 168.023C904.19 168.803 904.971 169.844 905.491 170.624C904.71 170.624 903.669 170.364 902.888 169.844C895.078 160.481 893.777 159.96 825.832 129.791C825.832 130.311 825.832 131.091 825.571 131.611C826.613 132.131 826.613 132.131 829.737 134.472C821.146 138.113 818.803 126.67 811.514 127.19C806.567 125.629 806.567 125.629 805.786 125.109L804.224 124.849L802.402 124.329C802.142 124.329 802.142 124.329 801.882 124.069C801.621 124.069 801.621 124.069 801.361 123.809C801.101 123.809 801.101 123.809 800.84 123.549C800.58 123.549 800.58 123.549 800.32 123.289C798.758 122.768 797.196 121.728 795.634 121.208H794.853L793.551 120.688L791.989 120.168L790.167 119.647L788.865 119.127C787.824 118.867 786.522 118.607 785.481 118.347C785.481 118.867 785.741 119.647 785.741 120.168C779.233 116.266 779.233 116.266 776.63 115.226C776.63 110.024 764.655 106.643 764.395 106.643L762.833 106.123C762.833 106.123 762.833 106.123 762.572 106.123C762.312 106.123 762.312 106.123 762.312 106.123H762.052H761.791C761.531 106.123 761.531 106.123 761.271 106.123C761.01 106.123 761.01 106.123 760.75 106.123C760.49 106.123 760.49 106.123 760.229 106.123C759.969 106.123 759.969 106.123 759.709 106.123C758.147 105.603 756.585 105.083 754.762 104.563L752.68 104.042L751.639 103.782C734.978 99.8811 732.895 99.361 721.18 92.0786C722.222 92.3387 723.523 92.8589 724.565 93.379C715.193 85.3165 710.507 86.6169 710.507 86.6169C709.986 86.3568 708.945 86.0967 708.424 85.5765C700.875 81.9354 695.408 80.895 695.408 80.895C682.392 76.4736 682.392 76.4736 681.09 75.9535C680.83 76.4736 680.309 76.9938 680.049 77.2539C677.706 76.4736 677.185 76.2135 675.103 75.6934C676.404 76.9938 676.404 78.8144 677.706 79.8547C674.842 79.5946 672.239 78.2942 669.375 77.774C668.855 78.0341 668.334 78.5543 668.074 78.8144C644.644 70.4917 644.645 70.4917 643.864 69.9715C643.083 70.4917 642.041 71.272 641.26 71.7921C639.178 73.3526 637.355 73.3526 624.079 65.03C625.12 65.03 626.422 64.7699 627.463 64.7699C626.682 63.9896 625.38 63.2094 624.599 62.9493C622.517 57.7476 614.447 53.8464 600.649 51.2455C599.868 51.7657 598.306 51.7657 597.525 51.5056C597.525 52.5459 597.786 53.8464 598.046 54.8867C594.662 53.8464 591.538 52.2859 587.893 51.7657C587.893 51.7657 575.137 47.8644 574.096 46.564C566.026 45.5237 559.257 37.9813 550.146 42.1426C549.105 41.6224 548.063 40.5821 547.543 39.5418C542.076 38.7615 537.13 35.3804 531.403 35.9006C531.923 36.1607 532.444 36.6809 532.965 36.9409C530.361 37.201 530.361 37.201 525.936 36.9409C515.523 36.1607 515.523 36.1607 512.659 36.1607C513.7 35.1204 515.002 33.8199 521.51 34.6002C523.593 34.8603 545.72 33.5599 545.72 33.5599C545.72 33.0397 545.72 32.2594 545.72 31.7393C544.679 31.2191 543.378 30.6989 542.336 30.1788C543.378 30.4389 544.94 30.959 545.981 31.2191C545.46 30.1788 544.419 29.1384 543.638 28.3582C543.117 28.3582 542.336 28.6183 541.816 28.6183C537.39 24.9771 534.527 22.6363 512.919 20.5557C513.44 20.2956 513.961 19.7754 514.221 19.2553C512.399 17.9548 512.139 17.6948 501.725 15.8742C502.767 15.6141 504.329 15.6141 505.37 15.6141C504.068 14.3137 503.287 13.2733 497.04 11.9729C493.916 11.7128 487.928 10.9326 484.284 13.5334C484.544 14.0536 485.065 14.5738 485.585 14.8338C482.461 14.5738 479.337 13.7935 476.213 13.5334C476.994 14.3137 478.296 15.0939 479.337 15.6141C473.089 15.8742 467.362 13.2733 461.114 14.0536C460.854 13.5334 460.594 12.7532 460.334 12.233C453.305 10.4124 445.235 11.1927 445.235 11.1927C439.768 10.6725 439.768 10.6725 438.726 10.4124H437.165L435.082 10.1523L434.301 10.4124H433.26L431.177 10.1523L428.053 10.4124C423.888 10.9326 420.764 11.4528 420.764 11.4528C420.504 11.7128 419.983 12.233 419.723 12.4931L418.421 13.2733V13.5334L419.723 13.7935L419.983 14.3137L421.285 14.8338C410.872 18.475 401.239 10.4124 391.087 12.4931C391.868 14.8338 391.868 14.8338 401.239 19.7754C391.347 27.5779 384.318 11.9729 374.686 14.8338C378.591 16.6544 378.591 16.6544 379.893 16.9145C379.632 16.9145 379.632 16.9145 372.864 16.1343C372.864 16.6544 373.124 17.4347 373.124 17.9548C376.769 19.5153 380.934 19.2553 384.058 21.8561C380.153 21.596 376.769 20.0355 372.864 19.2553C371.823 18.9952 370.261 18.7351 368.959 18.475C367.397 16.1343 367.397 15.354 367.918 13.2733C367.137 12.4931 365.835 11.7128 364.794 11.4528C365.054 11.9729 365.314 12.7532 365.314 13.5334L365.054 14.0536C356.203 16.3943 356.203 16.3943 355.943 16.3943C356.724 16.6544 357.765 16.9145 358.546 17.1746C360.368 18.7351 360.629 18.9952 363.492 20.0355C362.711 20.8158 361.41 21.596 360.368 22.1162C361.149 24.4569 362.191 27.5779 369.219 27.0578C371.823 26.7977 377.029 27.3179 383.277 31.7393C382.756 31.9994 382.236 32.2594 381.715 32.5195C382.756 34.3401 382.756 34.3401 388.223 35.3804C385.88 35.6405 385.62 35.6405 380.934 33.8199C379.112 30.1788 377.81 27.3179 366.876 27.838C366.876 28.3582 366.876 29.1384 366.616 29.6586C367.137 30.1788 367.657 30.6989 367.918 30.959C360.368 41.3624 341.625 32.7796 341.625 32.7796C343.968 32.2594 343.968 32.2594 354.641 33.5599C356.724 31.7393 357.505 31.7393 359.587 31.4792C359.848 30.4389 360.889 29.3985 361.93 28.8784C360.629 27.838 360.629 27.838 356.984 26.2775C356.463 22.3763 356.463 22.3763 355.422 21.0758C356.463 17.9548 356.463 17.9548 352.038 15.8742C352.298 14.8338 353.079 13.5334 354.12 13.0133C354.12 12.4931 354.381 11.7128 354.381 11.1927C352.819 10.1523 352.819 10.1523 349.174 9.11201H348.914H348.654H348.393H348.133L345.53 8.59184C339.542 7.81159 339.542 7.81159 339.021 7.81159C338.761 7.81159 338.761 7.81159 338.501 7.81159C338.241 7.81159 338.241 7.81159 337.98 7.81159C337.72 7.81159 337.72 7.81159 337.46 7.81159C337.199 7.81159 337.199 7.81159 336.939 7.81159L335.898 8.07167L335.637 8.59184C334.856 9.37209 334.075 10.6725 333.815 11.7128C330.951 13.0133 327.567 12.7532 324.964 14.5738C326.005 15.0939 327.307 15.6141 328.348 15.8742C328.608 16.3943 328.869 17.1746 328.869 17.6948C328.608 18.2149 328.088 18.7351 327.827 19.2553C328.088 19.7754 328.348 20.2956 328.608 20.8158C330.691 21.0759 334.336 21.596 338.241 25.4973C337.72 25.7574 336.939 26.2775 336.418 26.5376C332.513 25.4973 317.675 20.2956 317.675 20.2956C313.249 18.7351 304.919 16.9145 298.411 16.3943C294.766 15.354 291.382 13.0133 287.217 12.7532C287.217 13.2733 287.217 14.0536 287.217 14.5738C291.121 15.8742 291.121 15.8742 297.369 19.2553C296.588 20.0355 295.026 20.5557 293.985 20.8158L294.245 21.3359L293.464 21.596C292.944 21.596 292.163 21.596 291.382 21.596C289.82 18.7351 287.737 18.2149 282.01 19.5153L280.188 19.7754L277.584 19.2553H275.242H274.981H274.721H274.461H274.2C270.295 19.2553 266.39 19.7754 262.486 19.2553C262.746 18.7351 263.267 18.2149 263.787 17.9548C263.787 17.9548 263.787 17.6948 263.527 17.6948C264.048 17.4347 264.829 17.1746 265.349 16.9145C260.924 16.3943 260.143 16.9145 256.238 18.475C255.717 18.2149 254.936 17.6948 254.155 17.4347C247.907 17.6948 241.659 19.2553 235.151 19.5153C234.37 20.8158 234.37 20.8158 232.548 21.596C230.465 21.596 230.465 21.596 220.833 19.7754C220.833 19.2553 221.094 18.7351 221.094 18.475C222.395 17.9548 223.176 17.6948 224.218 17.9548C225.519 17.9548 227.081 17.9548 228.122 17.9548C226.821 15.8742 226.821 15.8742 212.503 14.0536C215.366 15.6141 215.367 15.6141 215.627 17.9548C215.367 18.2149 214.846 18.475 214.586 18.7351C215.106 19.2553 215.887 20.0355 216.668 20.2956C216.928 20.5557 217.189 21.0758 217.189 21.596C216.668 22.1162 216.148 23.1565 215.887 23.9368C200.788 22.6363 200.788 22.6363 195.321 24.9771C195.321 25.2372 195.582 25.7573 195.582 26.2775C196.363 26.5376 197.404 26.7977 198.185 27.5779C191.416 31.7393 185.95 23.6767 179.442 26.0174C179.702 27.5779 179.702 27.5779 185.95 29.6586C185.95 29.6586 185.95 29.6586 171.371 28.0981C170.851 26.5376 170.851 26.5376 169.028 24.9771C169.289 24.1968 169.809 23.1565 170.33 22.6363C166.425 20.5557 161.739 20.5557 158.355 17.6948C157.834 17.4347 157.314 17.4347 156.793 17.1746C169.289 17.4347 181.264 23.1565 194.02 22.6363C198.706 22.3763 199.226 21.8561 201.83 20.2956C199.747 14.3137 167.206 8.85193 165.905 8.59184C163.041 8.85193 161.479 8.85193 157.834 7.81159C158.355 7.55151 158.876 7.29142 159.136 7.03134C157.834 5.99101 157.834 5.99101 153.149 5.73092C152.628 5.99101 151.587 6.25109 150.806 6.25109C147.942 5.73092 145.339 6.25109 142.475 5.21076C144.558 4.43051 146.901 4.43051 149.244 3.91034C149.244 3.39017 149.244 2.87001 149.244 2.60992C140.132 1.30951 140.132 1.3095 135.967 2.87C135.707 2.60992 135.707 2.08975 135.446 1.56959C135.707 1.3095 136.227 1.04942 136.748 1.04942C136.227 0.529257 135.707 0.00909102 135.186 0.00909102C134.405 0.00909102 133.103 0.26917 132.322 0.26917C131.281 2.08975 130.761 2.08976 128.938 2.34984C128.678 2.08976 128.418 1.56959 128.157 1.04942C125.294 0.78934 123.211 2.87 120.347 2.87C121.649 1.56959 121.649 1.56959 123.732 0.789339C117.224 -1.8115 111.496 2.87001 105.249 2.60992C104.988 2.87001 104.728 3.39017 104.468 3.65026C98.48 3.65026 93.2736 3.39017 91.1909 4.43051V4.69059C88.848 7.03134 85.9844 4.17043 83.6414 5.21076C83.9017 5.47084 84.1621 5.99101 84.1621 6.51118C83.3811 6.77126 82.3398 7.03134 81.5588 6.77126C81.5588 7.03134 81.8192 7.03134 81.8192 7.29142L81.5588 7.55151C78.1746 8.85193 74.0093 6.77126 70.6251 9.63217C70.6251 9.63217 77.6539 9.63218 78.4349 10.4124C78.1746 10.6725 77.6539 10.6725 77.1333 10.9326C76.8729 10.6725 76.873 10.6725 69.5838 12.233C69.5838 12.7532 69.3235 13.0133 69.0632 13.5334C62.5551 16.3943 62.0344 17.6948 61.774 18.2149C58.6501 18.475 58.6501 18.475 57.8691 18.9952C58.3898 18.9952 58.9104 19.2553 59.1708 19.2553C58.9104 19.5153 58.3898 19.7754 57.8691 20.0355C57.8691 20.2956 57.6088 20.8158 57.6088 21.0758L57.0882 21.596C54.2246 22.3763 43.0306 27.838 42.7702 27.838C42.2496 28.0981 41.7289 28.3582 41.4686 28.3582C40.948 27.838 39.6463 27.5779 39.1257 27.5779C36.0018 31.4792 30.7953 28.6183 27.411 31.7393C20.6425 34.3401 20.6425 34.3401 20.1218 35.6405C20.3822 35.9006 20.9028 36.4208 21.1631 36.6809C20.9028 37.4611 20.6425 38.5014 20.1218 39.0216C20.3822 39.2817 20.3822 39.8019 20.6425 40.322C21.4235 40.322 22.4648 40.5821 23.5061 40.8422C23.2458 41.6224 22.4648 42.6628 21.9441 43.1829C22.2045 43.443 22.7251 43.7031 22.9854 43.9632C23.5061 43.9632 24.0267 43.7031 24.2871 43.7031C24.2871 44.2233 24.2871 44.7434 24.2871 45.0035C24.0267 45.2636 23.5061 45.5237 22.9854 45.5237C22.9854 45.7838 23.2458 46.3039 23.2458 46.8241C29.7539 47.6044 45.3735 49.1649 47.7164 42.9229C49.0181 43.9632 50.8403 43.7031 51.6213 45.0035C51.6213 45.5237 51.361 46.0439 51.361 46.3039C54.7452 49.1649 54.7453 49.1649 55.7866 51.2455C57.8692 51.7657 58.1295 52.0258 59.4311 53.0661C59.4311 53.5863 59.4311 54.1064 59.4311 54.3665C59.1708 54.6266 58.6501 54.8867 58.1295 55.1468C65.1583 61.909 71.9268 51.7657 78.9556 54.6266C79.4762 54.1064 80.2572 53.0661 80.5176 52.2859C79.9969 52.2859 79.4762 52.5459 79.2159 52.5459C79.2159 49.1649 79.2159 49.1649 89.1083 44.7434C89.1083 44.2233 89.3686 43.7031 89.3686 43.443C89.629 43.1829 90.1496 43.1829 90.6703 42.9229C90.6703 42.4027 90.6702 41.8825 90.4099 41.6224C87.8067 40.0619 82.6001 39.0216 82.6001 39.0216C82.3398 38.2414 82.0795 37.201 81.8192 36.4208C83.1208 35.3804 83.3811 35.3804 83.1208 33.0397C83.9018 32.7796 84.9431 32.5195 85.7241 32.2594C85.7241 31.7393 85.4637 31.2191 85.4637 30.959C85.4637 30.959 99.7817 29.3985 103.687 25.4973C103.426 25.2372 102.906 24.9771 102.385 24.717C104.207 18.7351 120.347 19.7754 121.909 22.8964C122.17 23.1565 122.17 23.9368 122.17 24.1969C119.306 24.1969 102.906 29.6586 101.083 32.5195C101.864 34.08 101.864 34.08 103.947 35.1204C103.947 35.6405 104.207 36.1607 104.207 36.4208C103.687 37.201 103.426 38.2414 103.166 39.2817C107.331 42.1426 107.331 42.1426 146.12 42.6628C143.256 43.9632 139.872 43.1829 137.008 44.4834C129.459 46.3039 121.649 43.443 114.1 45.5237C114.1 46.0439 113.839 46.564 113.839 46.8241C115.141 48.1245 116.963 48.3846 118.265 49.685C118.005 50.2052 118.005 51.2455 118.005 51.7657C112.538 54.6266 106.55 50.4653 101.083 53.0661C101.344 53.3262 101.344 53.8464 101.604 54.3665C101.344 54.6266 100.823 54.8867 100.563 54.8867L101.344 55.6669C101.083 55.927 100.563 56.4472 100.302 56.7073C100.563 56.9674 101.083 57.2274 101.344 57.4875C98.4801 59.8283 96.6578 61.6489 88.5877 61.1287C87.8067 60.3485 85.724 58.5279 76.092 61.1287C73.2284 61.909 73.2284 61.9089 50.0594 62.169C49.799 61.9089 49.5387 61.3888 49.2784 61.1287C47.7164 61.1287 47.7164 61.1287 45.3735 60.3485C45.1132 60.0884 44.8528 59.5682 44.8528 59.048C44.0718 58.788 43.0305 58.5279 42.2496 58.2678C42.5099 58.0077 42.5099 57.4875 42.7702 56.9674C47.9768 54.8867 47.9768 54.8867 49.2784 54.8867C48.4974 53.8464 46.9354 53.5863 46.1545 52.5459C46.4148 52.2859 46.9354 52.0258 47.4561 51.7657C47.7164 50.9854 47.7164 49.9451 47.7164 49.1649C47.4561 49.1649 33.9191 47.8644 34.4398 56.7073C35.2208 56.9674 36.2621 57.2274 37.043 57.4875C36.7827 57.7476 36.2621 58.0077 36.0017 58.2678C36.5224 59.5682 37.043 60.3485 38.0843 60.3485C38.3447 60.6085 38.605 61.1287 38.8654 61.3888C38.0844 61.9089 37.3033 62.6892 36.7827 63.2094C34.1794 63.2094 31.3159 62.4291 28.7126 63.4694C22.2045 64.5098 16.7376 68.9312 10.2295 70.4917C7.10555 71.532 3.98162 72.0522 0.857704 73.3526C0.857704 73.8728 0.857704 74.393 0.857704 74.653C-0.443927 75.6934 -0.96456 75.9535 -4.08848 76.4736C-6.69174 78.0341 -6.69177 78.0341 -17.6255 77.514C-17.3651 78.5543 -16.5841 80.1148 -15.8032 80.895C-26.9972 80.3749 -31.4227 81.1551 -31.4227 81.1551C-31.6831 81.6753 -31.9434 82.4555 -32.464 82.9757C-30.3814 84.2761 -30.3814 84.2761 -21.0097 85.3165C-20.7494 85.5765 -20.7494 85.5765 -14.7619 89.998C-14.7619 90.258 -14.7619 90.7782 -14.7619 91.2984C-15.2825 96.7601 -16.3238 97.2803 -17.6255 97.8005C-30.6418 99.8811 -43.9184 97.2803 -56.9348 99.8811C-56.6744 100.921 -56.6744 102.222 -56.4141 103.262C-55.1124 107.424 -59.0174 110.284 -59.538 114.186C-58.4967 114.706 -57.1951 115.746 -56.6744 116.526C-56.9347 117.047 -57.4554 117.567 -57.976 118.087C-46.782 123.809 -35.0673 118.347 -23.6129 119.387L-22.5717 119.127C-18.1461 117.567 -14.2412 114.706 -9.55534 113.405C-10.076 112.365 -10.5966 110.805 -10.5966 109.764C-6.43141 105.863 -6.4314 105.863 7.88655 102.222C6.32459 94.6795 18.0393 97.5404 18.2996 97.5404C23.5061 99.1009 23.5061 99.1009 31.5762 95.7198C44.3322 95.4597 44.3322 95.4597 45.1132 95.4597C52.142 107.684 68.2822 100.921 76.3523 110.545C76.092 111.585 75.5713 113.145 74.7903 114.186C76.873 114.186 76.873 114.186 81.8192 111.065C81.2985 110.024 80.5175 108.724 79.9969 107.684C82.8605 106.903 82.8605 106.903 87.8067 108.724C86.7654 106.903 85.9844 105.603 76.6127 104.042C76.3523 103.522 75.8317 103.002 75.5714 102.482C72.7078 102.482 72.7077 102.482 57.6088 94.9396C57.3485 93.8992 56.8278 92.3387 56.5675 91.2984C58.6501 91.0383 60.4724 90.2581 62.2947 90.2581C63.0757 91.2984 64.117 92.3387 64.898 93.119C64.898 93.119 83.1208 98.5807 88.5877 101.182C90.1496 101.442 90.1496 101.442 94.0545 103.782C94.0545 105.083 94.0545 106.643 94.0545 107.684C94.8354 108.204 95.6165 108.984 96.3975 109.244C96.9181 109.764 97.4388 110.284 97.6991 110.545H97.9594C100.563 111.325 102.906 112.885 105.509 113.666C105.249 114.186 104.988 114.966 104.728 115.486C105.249 116.006 106.03 116.787 106.811 117.047V117.567C107.331 118.087 107.331 118.087 114.1 119.908C113.839 119.387 113.579 118.607 113.319 118.087C114.36 117.827 115.922 117.307 117.224 117.047C116.182 116.787 114.62 116.266 113.319 115.746C113.579 115.486 114.1 114.966 114.36 114.706L115.922 115.486C116.703 115.746 117.744 116.006 118.785 116.266C118.525 115.746 118.265 114.966 117.744 114.446C118.265 114.446 119.046 114.446 119.827 114.446C118.005 112.885 118.005 112.885 111.757 108.984C112.017 108.464 112.277 107.684 112.277 107.163C115.141 108.724 115.141 108.724 119.827 108.724C119.306 108.204 118.786 107.684 118.265 107.424C118.786 107.163 119.566 106.903 120.087 106.643C120.608 106.903 121.389 107.424 121.909 107.684C130.24 104.303 138.831 108.204 147.421 106.643C145.078 105.603 142.215 105.343 140.132 103.522C139.612 103.262 138.831 102.742 138.31 102.482C138.31 101.962 138.31 101.182 138.31 100.401C139.872 99.621 141.694 99.361 142.996 98.3206C142.996 97.8005 143.256 97.0202 143.256 96.5C144.558 95.7198 144.558 95.7198 148.723 94.6795C148.723 94.1593 148.723 93.6391 148.463 93.379C152.107 90.7782 157.574 89.4778 157.574 89.4778C160.177 92.8589 166.686 91.8185 166.686 91.8185C165.644 92.5988 164.343 93.119 163.041 93.379C164.343 94.1593 165.905 94.4194 167.206 95.1996C167.466 95.7198 167.727 96.5 167.727 97.0202C172.933 97.5404 177.88 95.9799 183.086 95.9799C180.483 93.8992 176.838 95.1996 173.975 93.119C180.483 89.4778 190.636 89.998 190.896 89.998C192.197 89.998 193.759 89.7379 195.061 89.7379C193.499 90.5181 191.937 90.7782 190.375 91.5585C190.896 91.8186 191.937 92.3387 192.458 92.5988C188.553 94.6795 188.553 94.6795 187.251 94.9396C188.293 97.2803 188.293 97.5404 191.677 97.8005L210.16 105.863C210.681 106.123 211.201 106.643 211.722 106.903C211.462 107.424 211.201 107.944 211.201 108.464C196.102 112.625 182.565 101.702 167.727 104.823L144.297 108.464C139.612 109.504 134.665 106.903 130.24 110.024C131.281 110.545 131.281 110.545 134.926 113.405C134.665 113.926 134.145 114.446 133.884 114.966C134.405 115.226 135.186 115.486 135.707 116.006C135.186 116.266 134.405 116.787 134.145 117.047C147.161 122.248 154.711 122.248 154.711 122.248C154.971 121.728 155.491 121.208 155.752 120.688C164.863 120.168 173.714 123.029 182.565 121.728C182.826 122.508 182.565 123.809 182.045 124.589C182.305 125.629 182.565 126.93 182.826 127.97C180.483 131.871 175.797 137.073 175.797 137.073C176.318 139.674 178.661 141.494 179.442 144.095C173.975 133.432 153.669 137.853 153.409 137.853C146.12 140.194 127.376 135.773 127.376 135.773C124.773 134.472 110.976 128.49 98.48 133.692C98.7404 137.593 98.48 137.593 97.9594 138.113C94.5751 138.894 94.5752 138.894 74.2697 135.513C73.2284 133.952 73.2284 133.952 65.6789 131.351C50.8403 129.791 50.8403 129.791 45.1132 127.97C45.3735 127.45 45.3735 127.45 49.5387 124.589C49.2784 123.549 48.2371 122.248 47.4561 121.468C47.7164 120.948 47.9768 120.168 48.2371 119.647C41.9893 117.567 41.9893 117.567 35.2208 118.607C31.0556 118.867 17.5186 119.127 17.5186 119.127L16.7376 118.607C16.4773 118.607 -12.4189 120.688 -18.6668 124.329C-22.3113 125.629 -25.9559 123.809 -29.6005 124.329C-35.0673 125.369 -39.2326 123.809 -41.3152 122.768C-44.6994 124.329 -46.782 127.45 -49.9059 129.531C-54.8521 130.571 -65.5255 132.912 -64.2239 141.494C-67.3478 143.835 -67.3478 143.835 -70.732 145.136C-74.8972 147.736 -80.1038 147.216 -84.269 150.077L-85.05 151.638C-103.273 164.642 -103.273 164.642 -106.917 169.844C-105.355 171.144 -103.793 172.444 -102.492 173.745C-103.012 174.265 -103.533 174.785 -103.793 175.305C-103.533 175.826 -103.012 176.606 -102.752 177.126C-102.492 177.646 -102.231 178.426 -101.971 178.947C-101.971 178.947 -107.178 187.269 -109 188.57C-109 189.09 -109 189.87 -108.74 190.65C-108.219 190.91 -107.438 191.431 -106.917 191.691C-106.657 192.731 -106.917 194.291 -107.438 195.332V196.372V196.892C-104.835 197.933 -102.232 197.412 -99.6282 198.713V199.493C-99.1076 200.013 -98.3266 200.794 -97.8059 201.054C-94.9423 202.874 -91.5581 203.915 -88.9548 206.255L-88.6945 206.515C-87.3929 207.556 -86.0913 208.336 -86.6119 209.896C-82.4467 211.197 -81.1451 211.977 -80.3641 212.497C-72.294 214.058 -65.0048 218.999 -56.6744 219.259C-41.8358 214.838 -25.9559 218.479 -11.3777 213.538C-9.03472 212.757 -9.03469 212.757 -4.34882 211.977C6.06423 210.157 8.66748 210.937 16.2169 213.017C17.2582 215.878 18.2996 219.259 33.3985 215.878C41.4686 223.681 41.4686 223.681 40.9479 223.941C40.9479 224.201 40.948 224.201 40.167 229.403C35.2208 231.743 38.3447 235.385 38.605 235.645L54.7453 246.308C57.8692 249.169 59.6915 253.33 62.5551 256.451C62.2947 257.492 61.5137 258.792 60.4724 259.312C65.6789 268.155 65.6789 268.155 65.4186 269.195C63.336 275.958 56.3072 278.298 53.1833 284.02V286.361C52.4023 294.163 60.7328 295.464 63.5963 300.666C71.6665 309.248 70.3648 323.293 81.8192 329.795C84.9431 332.136 84.9431 332.136 86.505 332.916C86.7654 334.997 86.7653 334.997 94.3148 343.059C94.3148 343.579 94.3148 344.36 94.3148 344.88C93.5338 345.4 92.4925 346.18 91.4512 346.44C93.7941 350.081 99.0007 355.543 109.153 353.723C113.839 352.942 138.831 352.682 138.831 352.682C140.913 352.682 142.735 351.382 144.818 351.642H145.078H145.339H145.599H145.859C147.682 351.382 183.346 338.118 183.607 323.033C183.086 323.033 182.305 322.773 181.784 322.513C182.826 320.432 182.826 320.432 197.144 317.311C198.966 312.369 195.842 308.208 195.582 303.526C194.54 303.006 193.499 301.966 193.239 300.926C202.09 291.303 218.23 299.365 225.78 286.881C227.342 284.02 229.945 276.478 216.408 263.214C216.408 262.173 216.148 260.613 215.627 259.572C215.627 259.572 215.887 259.312 216.148 259.312C216.408 258.792 216.929 258.272 217.189 257.752C212.763 254.631 212.763 254.631 213.024 252.29C213.284 248.649 217.709 248.129 218.49 245.008C228.123 241.367 235.412 233.304 245.825 231.743C257.8 228.883 264.048 222.38 274.461 211.717C275.762 210.157 276.023 208.076 277.064 206.515C276.804 205.475 276.023 203.915 275.242 203.134C270.816 203.134 264.308 204.175 264.308 204.175C263.787 204.175 263.787 204.175 256.498 204.175H255.717H254.415C251.552 204.955 248.688 204.175 245.564 204.435C236.974 205.735 233.589 202.354 232.808 201.574L232.288 201.314C231.767 201.054 230.986 201.054 230.465 200.794C230.986 200.533 231.767 200.273 232.288 200.013C232.027 199.493 231.767 198.713 231.507 198.193C228.904 197.412 226.821 195.072 224.218 194.031C221.094 192.471 218.49 190.91 214.325 189.61C212.763 189.09 211.722 188.049 210.16 187.529C206.255 186.489 206.255 181.547 202.871 179.727C193.499 174.785 193.499 174.785 194.54 170.624C190.115 165.422 189.855 165.162 185.169 163.862C184.908 163.341 184.388 162.821 183.867 162.301C184.127 161.781 184.127 161.001 184.388 160.481C177.88 156.319 174.756 148.777 167.467 145.656C167.206 145.136 166.946 144.355 166.686 143.835C167.727 144.095 167.727 144.095 174.495 149.037C175.016 149.037 175.797 148.777 176.578 148.777C176.838 148.257 177.099 147.216 177.359 146.696L177.88 145.656L178.4 144.876C178.4 145.396 178.14 146.176 177.88 146.696C183.607 148.777 225.519 184.148 225.519 184.408L226.561 185.969V186.489L226.821 187.009L226.561 187.789C232.027 196.112 236.453 202.614 262.225 194.291L263.006 193.771C264.308 193.251 264.308 193.251 273.68 192.731C275.762 192.471 277.064 192.471 278.626 191.951C278.886 191.691 279.407 191.431 279.927 191.17C279.927 189.87 279.927 189.87 283.832 188.83H284.874H285.394C286.696 189.09 286.696 189.09 287.998 188.57C289.82 187.789 291.642 188.57 293.725 188.57C295.026 188.57 295.026 188.57 295.547 187.789C295.547 187.789 296.849 186.489 297.369 186.229C298.671 185.969 299.712 186.489 301.014 186.489C301.534 186.489 302.055 186.489 302.576 186.489C302.576 186.229 302.576 185.709 302.576 185.449C303.617 185.189 304.138 184.148 305.179 183.888C305.439 183.888 309.084 184.148 309.344 184.148C309.344 183.108 308.824 182.068 309.084 180.767H309.344C309.605 180.507 309.605 180.507 314.551 178.166C317.675 176.866 317.675 176.866 319.237 174.785L317.935 174.525L317.154 173.745C315.592 172.705 314.03 171.664 312.468 170.884C308.563 169.063 303.877 169.063 300.233 166.463C299.973 166.202 298.411 164.122 298.411 164.122C297.89 163.081 298.15 161.781 297.89 160.481C296.849 161.001 296.068 162.041 294.766 162.301L293.464 162.561C292.163 163.862 290.08 164.642 287.217 165.162C284.093 165.682 280.969 164.902 277.845 165.422C276.283 165.682 276.283 165.682 274.721 164.902C273.68 164.902 272.118 164.122 271.076 163.602C271.337 162.561 271.857 161.001 272.378 159.96C271.337 159.44 269.775 158.92 268.733 159.18C268.473 159.7 267.952 160.22 267.432 160.741C266.39 160.22 264.829 159.7 263.787 159.18C264.048 158.66 264.308 157.88 264.568 157.36C259.882 155.019 255.977 151.378 251.552 148.257C251.812 147.476 252.333 146.176 253.114 145.656C258.32 144.095 265.87 147.476 267.692 151.118L268.213 151.898C269.514 153.198 271.337 153.458 273.159 154.239V154.759H272.899C272.899 154.759 272.899 155.019 273.159 155.019C292.683 151.638 308.303 166.202 326.786 166.983C330.951 167.243 349.174 168.803 349.174 168.803C351.257 168.543 354.901 168.283 364.013 175.565C368.178 177.906 368.959 178.426 373.124 178.947C372.343 179.727 370.781 179.987 369.48 179.987C377.55 188.31 384.839 185.709 387.442 184.928C387.182 184.408 386.921 183.628 386.921 183.108C387.442 183.108 388.223 182.848 388.744 182.588C394.471 189.61 393.95 200.273 402.02 205.995L420.764 226.542V226.802C420.764 227.582 422.066 228.102 422.586 228.362C423.367 228.622 424.148 228.883 424.669 229.143C424.929 229.403 425.189 229.403 425.189 229.663C425.189 229.663 428.313 230.183 429.615 228.362C429.615 228.102 429.875 228.102 429.875 227.842C433.78 227.062 433.78 227.062 435.863 227.322C434.822 227.062 433.52 226.022 432.739 225.241C433.78 224.981 435.342 224.461 436.383 223.941C436.644 223.421 436.644 222.641 436.904 222.12C436.644 221.6 436.123 221.08 435.863 220.56C436.644 219.52 436.644 219.52 435.342 209.636C435.863 209.116 436.383 208.596 436.644 208.336C447.317 208.596 467.883 199.233 468.143 199.233C468.143 198.713 468.143 197.933 468.143 197.412C469.966 196.632 469.966 196.632 473.089 196.632C474.131 196.892 475.172 196.892 476.213 197.152C480.639 197.933 480.639 197.933 484.023 196.892C487.668 198.973 498.602 201.574 498.602 201.574C498.081 201.574 497.04 201.834 496.519 201.834C496.779 202.094 497.3 202.614 497.56 202.874C497.56 202.874 506.151 208.336 506.672 209.636C511.618 211.197 509.275 218.739 515.002 219.78C519.428 220.56 523.593 216.919 528.018 219.259C529.06 219.78 530.361 220.82 531.142 221.6L544.419 234.864ZM532.444 114.966C534.787 115.486 534.787 115.486 541.816 115.486L543.638 114.706C543.117 114.966 542.336 115.486 541.816 115.486C541.816 115.486 536.609 115.746 534.527 115.486L532.444 114.966ZM554.311 111.845C554.572 111.845 554.572 111.845 554.572 111.845H554.311ZM554.051 112.625C553.53 112.105 554.051 111.845 554.311 111.845C554.051 111.845 553.791 112.365 554.051 112.625ZM553.01 108.204L553.27 107.944C553.01 107.944 553.01 108.204 553.01 108.204ZM548.844 112.625C549.365 112.625 549.625 112.365 550.146 112.105C549.886 112.365 549.365 112.625 548.844 112.625ZM544.159 112.885C543.898 112.885 543.898 112.885 543.638 112.885C544.159 112.885 544.419 112.625 544.94 112.365C544.679 112.885 544.419 112.885 544.159 112.885ZM539.733 113.666C539.993 113.405 540.514 113.405 541.035 113.405C540.514 113.405 540.254 113.666 539.733 113.666ZM543.117 113.145H543.378C543.378 113.145 543.378 113.145 543.117 113.145ZM556.914 109.244C556.914 108.984 556.914 108.984 556.914 108.724L557.435 108.204C557.175 108.464 557.175 108.724 556.914 109.244ZM551.968 108.464C551.708 108.464 551.448 108.464 551.448 108.724C551.708 108.724 551.708 108.724 551.968 108.464ZM550.927 110.545C550.667 110.545 550.667 110.545 550.667 110.805C550.667 110.805 550.667 110.545 550.927 110.545ZM548.844 111.325C549.365 110.805 549.886 110.805 550.406 110.805C549.886 110.805 549.105 111.065 548.844 111.325ZM534.787 114.446C534.526 114.446 534.527 114.446 534.527 114.446C534.266 114.446 534.526 114.446 534.787 114.446ZM276.023 99.361C276.023 99.361 275.762 99.361 275.762 99.1009C276.023 99.1009 276.283 99.1009 276.023 99.361C276.023 99.361 275.762 99.361 275.762 99.1009C276.023 99.1009 276.023 99.1009 276.023 99.361ZM283.312 113.926C280.708 113.926 278.105 113.145 275.502 113.145C275.502 113.666 275.242 114.446 275.242 114.966C276.283 115.486 277.845 116.006 279.146 116.266C278.886 116.787 278.365 117.307 278.105 117.827C279.407 118.087 280.708 118.607 282.01 118.867C282.531 120.948 282.531 122.768 283.051 124.849C281.229 125.629 280.188 126.15 273.159 125.369C267.432 124.589 262.225 122.508 256.758 121.208L256.238 120.428L255.977 119.647C255.717 118.867 255.457 117.827 255.196 117.047C255.977 116.787 256.758 116.526 257.539 116.526C257.8 115.486 258.581 114.186 259.362 113.405L257.279 112.105L255.977 111.065C252.333 107.684 252.333 107.684 251.292 107.424C249.73 106.383 248.168 105.083 246.606 103.782C246.866 103.262 247.126 102.482 247.387 101.962C243.221 99.6211 243.221 99.6211 241.659 99.361C245.564 96.5001 251.292 97.5404 254.676 93.8992C263.006 92.0786 263.006 92.0786 268.473 93.6391C272.378 92.8589 273.159 93.6391 275.242 96.5C274.981 97.0202 274.721 97.8005 274.461 98.3206C274.981 98.5807 275.502 99.1009 276.023 99.6211C273.68 99.361 271.597 98.8408 269.254 98.5807C268.994 98.5807 268.733 98.5807 268.733 98.5807C266.13 98.3206 265.61 98.3206 265.61 98.3206C265.349 98.3206 265.349 98.3206 264.568 99.1009C264.308 99.1009 264.308 99.1009 263.787 99.361C263.787 99.6211 264.568 100.141 264.568 100.141C265.089 100.401 265.87 100.661 266.13 100.921C264.308 100.921 262.486 100.141 260.403 100.141C259.882 100.141 259.882 100.921 259.882 101.182C263.267 101.702 263.267 101.702 263.527 102.222C263.527 102.482 263.267 102.482 263.267 102.742C263.267 103.002 263.527 103.002 264.048 103.002C264.308 103.002 264.829 103.262 265.61 103.522C265.87 104.042 265.87 104.563 265.87 105.083C268.213 105.863 268.733 106.123 268.994 106.123C269.254 106.383 269.514 106.383 269.775 106.383C270.035 106.383 270.295 106.383 270.556 106.383C271.597 106.643 273.159 107.163 274.2 107.684C273.94 108.204 273.419 108.724 273.159 109.244C273.68 110.284 274.461 111.585 275.242 112.365C276.283 109.504 277.324 109.244 279.667 109.244C280.969 111.065 280.969 111.065 285.134 113.145L285.915 113.926H283.312Z" fill="url(#paint0_linear_2093_597)"/>
</g>
<defs>
<linearGradient id="paint0_linear_2093_597" x1="-663.973" y1="174.711" x2="976.471" y2="174.711" gradientUnits="userSpaceOnUse">
<stop stop-color="#375195"/>
<stop offset="1" stop-color="#101930"/>
</linearGradient>
<clipPath id="clip0_2093_597">
<rect width="360" height="355" fill="white"/>
</clipPath>
</defs>
</svg>
